<svg width="136" height="136" viewBox="0 0 136 136" fill="none" xmlns="http://www.w3.org/2000/svg">
<rect width="136" height="136" rx="40" fill="#F2F3F8"/>
<path fill-rule="evenodd" clip-rule="evenodd" d="M62 50C58.6863 50 56 52.6863 56 56V58L52 58.0001C49.7909 58.0001 48 59.7909 48 62V82C48 84.2091 49.7909 86 52 86H84C86.2091 86 88 84.2091 88 82V62C88 59.7909 86.2091 58 84 58H80V56C80 52.6863 77.3137 50 74 50H62ZM76 58V56C76 54.8954 75.1046 54 74 54H62C60.8954 54 60 54.8954 60 56V58L76 58ZM52 62V66H84V62H52ZM84 70H73.6586C72.8349 72.3304 70.6124 74 68 74C65.3876 74 63.1651 72.3304 62.3414 70H52V82H84V70Z" fill="#142251"/>
</svg>
