<svg width="136" height="136" viewBox="0 0 136 136" fill="none" xmlns="http://www.w3.org/2000/svg">
<rect width="136" height="136" rx="40" fill="#F2F3F8"/>
<path d="M68 52C63.5817 52 60 55.5817 60 60C60 64.4183 63.5817 68 68 68C72.4183 68 76 64.4183 76 60C76 55.5817 72.4183 52 68 52ZM56 60C56 53.3726 61.3726 48 68 48C74.6274 48 80 53.3726 80 60C80 66.6274 74.6274 72 68 72C61.3726 72 56 66.6274 56 60ZM60 80C56.6863 80 54 82.6863 54 86C54 87.1046 53.1046 88 52 88C50.8954 88 50 87.1046 50 86C50 80.4771 54.4772 76 60 76H76C81.5228 76 86 80.4771 86 86C86 87.1046 85.1046 88 84 88C82.8954 88 82 87.1046 82 86C82 82.6863 79.3137 80 76 80H60Z" fill="#142251"/>
</svg>
