<svg width="136" height="136" viewBox="0 0 136 136" fill="none" xmlns="http://www.w3.org/2000/svg">
<rect width="136" height="136" rx="40" fill="#F2F3F8"/>
<path d="M79.0039 48.2702C79.6205 48.628 80 49.2871 80 50V58C82.3695 58 84.5005 59.0327 85.9625 60.6662C87.2281 62.0802 88 63.9523 88 66C88 68.0477 87.2281 69.9198 85.9625 71.3338C84.5005 72.9673 82.3695 74 80 74V82C80 82.7129 79.6205 83.372 79.0039 83.7298C78.3872 84.0877 77.6267 84.0902 77.0077 83.7365L64 76.3035V86C64 87.1046 63.1046 88 62 88H54C52.8954 88 52 87.1046 52 86V76C49.7909 76 48 74.2091 48 72V60C48 57.7909 49.7909 56 52 56H63.4689L77.0077 48.2635C77.6267 47.9098 78.3872 47.9123 79.0039 48.2702ZM64 72C64.3481 72 64.6901 72.0908 64.9923 72.2635L76 78.5536V53.4464L64.9923 59.7365C64.6901 59.9092 64.3481 60 64 60H52V72H64ZM56 76V84H60V76H56ZM80 70C81.1845 70 82.2467 69.4877 82.9819 68.6662C83.6165 67.9572 84 67.0258 84 66C84 64.9742 83.6165 64.0428 82.9819 63.3338C82.2467 62.5123 81.1845 62 80 62V70Z" fill="#142251"/>
</svg>
