<svg width="136" height="136" viewBox="0 0 136 136" fill="none" xmlns="http://www.w3.org/2000/svg">
<rect width="136" height="136" rx="40" fill="#F2F3F8"/>
<path d="M68 49C68.7575 49 69.4501 49.428 69.7888 50.1056L74.9467 60.4212L86.2879 62.0708C87.0411 62.1804 87.6669 62.708 87.9021 63.432C88.1373 64.1559 87.9412 64.9506 87.3962 65.482L79.1419 73.5299L80.9987 84.877C81.1215 85.6269 80.8086 86.3816 80.1913 86.8248C79.5739 87.2679 78.7588 87.3229 78.0876 86.9667L68 81.6141L57.9124 86.9667C57.2412 87.3229 56.4261 87.2679 55.8087 86.8248C55.1914 86.3816 54.8785 85.6269 55.0012 84.877L56.858 73.5299L48.6038 65.482C48.0588 64.9506 47.8627 64.1559 48.0979 63.432C48.3331 62.708 48.9589 62.1804 49.7121 62.0708L61.0533 60.4212L66.2111 50.1056C66.5499 49.428 67.2425 49 68 49ZM68 55.4721L64.1638 63.1444C63.8712 63.7298 63.3106 64.135 62.6629 64.2292L54.2968 65.4461L60.3962 71.393C60.8636 71.8487 61.0792 72.5038 60.9737 73.148L59.6 81.543L67.0626 77.5833C67.6488 77.2722 68.3512 77.2722 68.9374 77.5833L76.4 81.543L75.0262 73.148C74.9208 72.5038 75.1364 71.8487 75.6038 71.393L81.7032 65.4461L73.3371 64.2292C72.6894 64.135 72.1288 63.7298 71.8361 63.1444L68 55.4721Z" fill="#142251"/>
</svg>
